Coordinates
version=1
nRows=30
nColumns=30
inDegrees=yes

Units are S.I. units (second, meters, Newtons, ...)
Angles are in degrees.

endheader
time	floatyaw	floatroll	floatpitch	floatx	floaty	floatz	pro_sup_l	deviation_l	flexion_l	cmc_flexion_l	cmc_abduction_l	mp_flexion_l	ip_flexion_l	2mcp_flexion_l	2mcp_abduction_l	2pm_flexion_l	2md_flexion_l	3mcp_flexion_l	3mcp_abduction_l	3pm_flexion_l	3md_flexion_l	4mcp_flexion_l	4mcp_abduction_l	4pm_flexion_l	4md_flexion_l	5mcp_flexion_l	5mcp_abduction_l	5pm_flexion_l	5md_flexion_l
-1.495000	-160.147433	-5.066637	-73.570646	0.076566	-0.180315	-0.021291	98.299760	0.297613	-1.705513	14.582500	0.255561	-25.220403	-40.647365	30.110098	6.799661	42.155283	29.570990	25.187725	4.025049	43.084969	28.539780	14.727799	-4.355663	51.014308	35.233305	-0.366985	-7.669209	62.248513	42.773039
-1.485000	-160.147433	-5.066637	-73.570646	0.076566	-0.180309	-0.021289	98.295632	0.295824	-1.695669	14.586065	0.256531	-25.231723	-40.658940	30.106067	6.799745	42.157167	29.570465	25.182665	4.021869	43.089337	28.533283	14.717915	-4.353997	51.014655	35.231043	-0.386047	-7.668387	62.264471	42.781168
-1.475000	-160.147433	-5.066637	-73.570646	0.076565	-0.180305	-0.021289	98.284477	0.289887	-1.683847	14.584546	0.262119	-25.239147	-40.661201	30.099466	6.800666	42.154751	29.568299	25.172955	4.019108	43.092581	28.527439	14.702063	-4.351507	51.019075	35.232036	-0.411155	-7.667487	62.282711	42.793687
-1.465000	-160.147433	-5.066637	-73.570646	0.076564	-0.180301	-0.021291	98.270007	0.282388	-1.671354	14.577841	0.269580	-25.242060	-40.656317	30.092286	6.802276	42.146085	29.563909	25.158491	4.016718	43.096859	28.525128	14.682775	-4.348478	51.024809	35.234945	-0.437495	-7.666959	62.299987	42.806620
-1.455000	-160.147433	-5.066637	-73.570646	0.076564	-0.180298	-0.021292	98.257263	0.276626	-1.659989	14.568002	0.275576	-25.240463	-40.648439	30.086929	6.804582	42.131238	29.556922	25.141128	4.014865	43.103757	28.527849	14.664278	-4.345533	51.029223	35.238190	-0.458663	-7.667603	62.313990	42.816881
-1.445000	-160.147433	-5.066637	-73.570646	0.076564	-0.180295	-0.021290	98.250509	0.275113	-1.651341	14.558234	0.278069	-25.234966	-40.642026	30.085499	6.807724	42.112342	29.547221	25.124203	4.013950	43.113263	28.534844	14.651056	-4.343275	51.030560	35.240399	-0.469099	-7.670179	62.323985	42.823309
-1.435000	-160.147433	-5.066637	-73.570646	0.076564	-0.180290	-0.021286	98.251443	0.278447	-1.646186	14.551246	0.277451	-25.226692	-40.640166	30.089530	6.811713	42.092454	29.534892	25.111506	4.014385	43.123533	28.543297	14.646282	-4.341979	51.028173	35.240695	-0.466269	-7.674868	62.330458	42.826421
-1.425000	-160.147433	-5.066637	-73.570646	0.076564	-0.180283	-0.021279	98.258505	0.285070	-1.644244	14.547912	0.276378	-25.217266	-40.643617	30.099895	6.816089	42.074131	29.520374	25.106093	4.016221	43.131502	28.549512	14.650682	-4.341501	51.022388	35.238845	-0.451713	-7.681002	62.334293	42.827489
-1.415000	-160.147433	-5.066637	-73.570646	0.076565	-0.180275	-0.021271	98.267618	0.292026	-1.644382	14.546975	0.278348	-25.208736	-40.650827	30.116481	6.819904	42.058772	29.504911	25.109297	4.018912	43.134087	28.550525	14.662259	-4.341392	51.014305	35.235323	-0.430559	-7.687354	62.336373	42.827822
-1.405000	-160.147433	-5.066637	-73.570646	0.076566	-0.180267	-0.021263	98.274016	0.296306	-1.645198	14.545862	0.286007	-25.203157	-40.658662	30.137583	6.822236	42.047197	29.491036	25.120165	4.021461	43.129685	28.545573	14.676997	-4.341144	51.005749	35.231321	-0.409599	-7.692848	62.337883	42.828658
-1.395000	-160.147433	-5.066637	-73.570646	0.076566	-0.180260	-0.021258	98.274158	0.296057	-1.645686	14.542049	0.300278	-25.201906	-40.663402	30.159592	6.822883	42.040853	29.482502	25.135528	4.022884	43.119491	28.536794	14.690270	-4.340438	50.999234	35.228609	-0.394672	-7.697154	62.340678	42.831325
-1.385000	-160.147433	-5.066637	-73.570646	0.076565	-0.180257	-0.021255	98.266843	0.291087	-1.645582	14.534201	0.320524	-25.205152	-40.661789	30.177667	6.822634	42.042290	29.483181	25.150905	4.022656	43.107756	28.528640	14.698354	-4.339264	50.997553	35.229068	-0.388504	-7.700707	62.346845	42.837060
-1.375000	-160.147433	-5.066637	-73.570646	0.076562	-0.180256	-0.021255	98.253198	0.282519	-1.645282	14.522571	0.344958	-25.211877	-40.652107	30.187593	6.822805	42.054019	29.495081	25.162120	4.020826	43.100435	28.525957	14.699444	-4.337887	51.002826	35.233959	-0.390012	-7.704166	62.357381	42.846309
-1.365000	-160.147433	-5.066637	-73.570646	0.076558	-0.180259	-0.021256	98.235953	0.272027	-1.645532	14.508565	0.370627	-25.220375	-40.635195	30.188073	6.824368	42.076295	29.516489	25.167090	4.017812	43.102600	28.531546	14.694053	-4.336661	51.015370	35.243195	-0.395160	-7.707774	62.370895	42.857916
-1.355000	-160.147433	-5.066637	-73.570646	0.076553	-0.180265	-0.021258	98.218620	0.261269	-1.647166	14.493845	0.393204	-25.228924	-40.614931	30.182056	6.827289	42.105489	29.541550	25.166820	4.014144	43.115951	28.544555	14.684909	-4.335847	51.033030	35.254985	-0.398736	-7.711062	62.383418	42.868905
-1.345000	-160.147433	-5.066637	-73.570646	0.076547	-0.180272	-0.021262	98.204862	0.251778	-1.650841	14.479524	0.407518	-25.236298	-40.597590	30.175915	6.830502	42.134459	29.561956	25.164825	4.010380	43.137846	28.560725	14.676346	-4.335569	51.051479	35.266164	-0.396307	-7.713071	62.389795	42.875297
-1.335000	-160.147433	-5.066637	-73.570646	0.076541	-0.180278	-0.021266	98.197757	0.244997	-1.656672	14.465793	0.409439	-25.241975	-40.589753	30.176575	6.832530	42.154935	29.570164	25.165139	4.007154	43.162430	28.574461	14.673088	-4.335914	51.065545	35.273250	-0.385847	-7.712852	62.386112	42.873818
-1.325000	-160.147433	-5.066637	-73.570646	0.076536	-0.180282	-0.021272	98.198767	0.241994	-1.663926	14.452038	0.398474	-25.245946	-40.595326	30.188181	6.832371	42.160678	29.562556	25.170056	4.005165	43.183286	28.581591	14.678573	-4.337054	51.071173	35.273919	-0.368566	-7.709906	62.371832	42.863643
-1.315000	-160.147433	-5.066637	-73.570646	0.076531	-0.180283	-0.021278	98.206881	0.242954	-1.671130	14.437250	0.379207	-25.248141	-40.613106	30.210327	6.830080	42.149806	29.540864	25.178956	4.004965	43.196259	28.581255	14.693480	-4.339239	51.067229	35.268191	-0.348338	-7.704354	62.350140	42.846942
-1.305000	-160.147433	-5.066637	-73.570646	0.076526	-0.180281	-0.021283	98.218761	0.246995	-1.676738	14.420514	0.359965	-25.247859	-40.636558	30.238836	6.826650	42.125379	29.511221	25.188777	4.006710	43.201073	28.576039	14.715300	-4.342648	51.056249	35.258631	-0.329672	-7.696864	62.325983	42.827575
-1.295000	-160.147433	-5.066637	-73.570646	0.076522	-0.180275	-0.021285	98.230216	0.252664	-1.679947	14.401498	0.348899	-25.243816	-40.656453	30.268265	6.823318	42.094274	29.481570	25.195680	4.010106	43.200961	28.570411	14.739283	-4.347221	51.043646	35.249365	-0.315233	-7.688411	62.303068	42.808682
-1.285000	-160.147433	-5.066637	-73.570646	0.076518	-0.180269	-0.021285	98.238158	0.258740	-1.681020	14.380909	0.349752	-25.235122	-40.665260	30.294284	6.820838	42.065046	29.458932	25.196917	4.014592	43.200594	28.568434	14.760245	-4.352546	51.035619	35.244381	-0.304694	-7.679955	62.282164	42.791021
-1.275000	-160.147433	-5.066637	-73.570646	0.076514	-0.180264	-0.021281	98.241597	0.264556	-1.680772	14.360740	0.360031	-25.222727	-40.660923	30.314492	6.819267	42.045489	29.447672	25.191977	4.019531	43.203510	28.571924	14.774139	-4.357859	51.036640	35.245956	-0.295917	-7.672164	62.261898	42.773350
-1.265000	-160.147433	-5.066637	-73.570646	0.076509	-0.180260	-0.021275	98.240907	0.269504	-1.679547	14.343957	0.372672	-25.210285	-40.647883	30.327606	6.818306	42.040441	29.448976	25.182531	4.024190	43.210543	28.579903	14.778634	-4.362153	51.047563	35.253839	-0.287608	-7.665373	62.240981	42.754348
-1.255000	-160.147433	-5.066637	-73.570646	0.076503	-0.180258	-0.021268	98.236038	0.272214	-1.676519	14.333489	0.379899	-25.203466	-40.634801	30.332269	6.817810	42.050311	29.461124	25.171379	4.027551	43.220047	28.589499	14.772900	-4.364442	51.065168	35.265461	-0.281259	-7.659832	62.219753	42.734405
-1.245000	-160.147433	-5.066637	-73.570646	0.076498	-0.180253	-0.021263	98.225326	0.270276	-1.669982	14.330862	0.376833	-25.207650	-40.630243	30.326962	6.818051	42.070909	29.480254	25.161175	4.028336	43.229443	28.597679	14.757443	-4.364145	51.083448	35.277044	-0.280722	-7.656081	62.200161	42.716044
-1.235000	-160.147433	-5.066637	-73.570646	0.076495	-0.180246	-0.021267	98.206006	0.261021	-1.658463	14.335239	0.363160	-25.225136	-40.638595	30.311444	6.819575	42.094971	29.501557	25.153742	4.025548	43.236799	28.602775	14.734457	-4.361465	51.096209	35.285205	-0.289669	-7.655113	62.184982	42.703099
-1.225000	-160.147433	-5.066637	-73.570646	0.076493	-0.180235	-0.021286	98.176089	0.243116	-1.641786	14.343522	0.342675	-25.253622	-40.658292	30.288534	6.822825	42.115066	29.520827	25.150157	4.019336	43.241462	28.605025	14.708223	-4.357493	51.099931	35.288390	-0.308767	-7.658078	62.177372	42.699433
-1.215000	-160.147433	-5.066637	-73.570646	0.076492	-0.180220	-0.021323	98.136159	0.218205	-1.621367	14.351558	0.321460	-25.287055	-40.683182	30.264412	6.827882	42.126702	29.535925	25.151208	4.011481	43.243882	28.606090	14.684704	-4.353870	51.095553	35.287516	-0.334393	-7.665648	62.180762	42.707759
-1.205000	-160.147433	-5.066637	-73.570646	0.076487	-0.180198	-0.021381	98.089655	0.191729	-1.599816	14.355819	0.305631	-25.318555	-40.706165	30.246653	6.834578	42.130147	29.547470	25.157653	4.004924	43.245476	28.608216	14.670051	-4.351991	51.088341	35.285535	-0.359555	-7.677385	62.198348	42.728722
